<?xml version="1.0" encoding="utf-8"?>
<!-- Generator: Adobe Illustrator 23.0.3, SVG Export Plug-In . SVG Version: 6.00 Build 0)  -->
<svg version="1.1" id="Layer_1" xmlns="http://www.w3.org/2000/svg" xmlns:xlink="http://www.w3.org/1999/xlink" x="0px" y="0px"
	 viewBox="0 0 32 32" style="enable-background:new 0 0 32 32;" xml:space="preserve">
<style type="text/css">
	.st0{fill:#231F20;}
</style>
<path class="st0" d="M1,5.62h3.1l1.44,25.44c0.03,0.53,0.47,0.94,1,0.94h18.93c0.53,0,0.97-0.42,1-0.94L27.9,5.62H31
	c0.55,0,1-0.45,1-1s-0.45-1-1-1h-3.74c-0.06,0-0.1,0.02-0.16,0.03c-0.05-0.01-0.1-0.03-0.15-0.03H21.7V1c0-0.55-0.45-1-1-1h-9.41
	c-0.55,0-1,0.45-1,1v2.62H5.05C5,3.62,4.96,3.64,4.91,3.64C4.87,3.64,4.83,3.62,4.78,3.62H1c-0.55,0-1,0.45-1,1S0.45,5.62,1,5.62z
	 M12.29,2h7.41v1.62h-7.41V2z M25.89,5.62L24.53,30H7.49L6.1,5.62C6.1,5.62,25.89,5.62,25.89,5.62z"/>
<path class="st0" d="M11.05,28.13c0.02,0,0.04,0,0.06,0c0.55-0.03,0.97-0.5,0.94-1.06L10.99,8.53c-0.03-0.55-0.52-0.97-1.06-0.94
	C9.39,7.62,8.97,8.1,9,8.65l1.05,18.53C10.08,27.71,10.52,28.13,11.05,28.13z"/>
<path class="st0" d="M20.86,28.12c0.02,0,0.04,0,0.06,0c0.53,0,0.97-0.41,1-0.94l1.05-18.53c0.03-0.55-0.39-1.02-0.94-1.06
	C21.48,7.57,21,7.98,20.97,8.53l-1.05,18.53C19.88,27.62,20.31,28.09,20.86,28.12z"/>
<path class="st0" d="M16,28.13c0.55,0,1-0.45,1-1V8.59c0-0.55-0.45-1-1-1s-1,0.45-1,1v18.54C15,27.68,15.45,28.13,16,28.13z"/>
</svg>
